# xmcd
#
# Track frame offsets: 
#        150
#        18700
#        42550
#        61162
#        81825
#        98250
#        116825
#        136075
#        152075
#        165725
#        179212
#        200750
#        218825
#        233500
#        248050
#        266150
#        285287
#
# Disc length: 4041 seconds
#
# Revision: 1
# Processed by: cddbd v1.5.2PL0 Copyright (c) Steve Scherf et al.
# Submitted via: ExactAudioCopy v1.3
#
DISCID=ee0fc711
DTITLE=Various Artist - Sanfte Gefühle
DYEAR=1993
DGENRE=Schlager
TTITLE0=Judy Weiss - Weil Du Wiederkommst
TTITLE1=Bandit - Für Immer
TTITLE2=Valeries Garden - Sanfte Gefühle
TTITLE3=Roland Kaiser - Ganz Oder Gar Nicht
TTITLE4=Andy Borg - Einmal Wird Der Wind Sich Wieder Drehen
TTITLE5=Veronika Fischer - Ich Hab Geträumt
TTITLE6=Matthias Reim - Indianer
TTITLE7=Wiebke Schröder - Ohne Dich
TTITLE8=Michelle - Erste Sehnsucht
TTITLE9=Münchener Freiheit - Viel Zu Weit
TTITLE10=Patricia Kaas - Ganz Und Gar
TTITLE11=Tom Becker - Himmel Auf Erden
TTITLE12=Kristina Bach - Ein Bisschen Näher Zu Dir
TTITLE13=Howard Carpendale - Du Bist Nicht Mehr Wie Sonst Zu Mir
TTITLE14=Stefan Waggershausen - Love Story
TTITLE15=Ireen Sheer and Bernhard Brink - Du Gehst Fort
TTITLE16=Andreas Martin - Ti Amo
EXTD=
EXTT0=
EXTT1=
EXTT2=
EXTT3=
EXTT4=
EXTT5=
EXTT6=
EXTT7=
EXTT8=
EXTT9=
EXTT10=
EXTT11=
EXTT12=
EXTT13=
EXTT14=
EXTT15=
EXTT16=
PLAYORDER=
